<?xml version="1.0" encoding="UTF-8"?>
<svg xmlns="http://www.w3.org/2000/svg" xmlns:xlink="http://www.w3.org/1999/xlink" width="20px" height="20px" viewBox="0 0 20 20" version="1.1">
<g id="surface1">
<path style="fill-rule:nonzero;fill:rgb(41.960785%,41.960785%,41.960785%);fill-opacity:1;stroke-width:1;stroke-linecap:butt;stroke-linejoin:miter;stroke:rgb(41.960785%,41.960785%,41.960785%);stroke-opacity:1;stroke-miterlimit:4;" d="M 30.996094 7.998047 C 30.996094 7.998047 27.636719 7.929688 25.283203 10.283203 C 24.882812 10.683594 24.882812 11.318359 25.283203 11.71875 C 25.683594 12.119141 26.318359 12.119141 26.71875 11.71875 C 28.027344 10.410156 29.638672 10.166016 30.371094 10.097656 C 30.576172 10.527344 30.800781 10.996094 30.908203 11.503906 C 30.917969 11.5625 30.9375 11.630859 30.966797 11.689453 C 30.917969 12.041016 30.78125 12.568359 30.498047 13.027344 C 30.136719 13.623047 29.707031 14.003906 29.003906 14.003906 C 24.794922 14.003906 22.734375 15.46875 21.777344 16.972656 C 21.308594 17.724609 21.103516 18.427734 20.9375 18.808594 C 20.888672 18.925781 20.869141 18.925781 20.839844 18.964844 C 19.472656 18.955078 18.037109 18.828125 16.904297 18.535156 C 15.732422 18.222656 14.951172 17.666016 14.873047 17.529297 C 14.873047 17.519531 14.873047 17.509766 14.873047 17.5 C 14.296875 16.503906 13.603516 15.693359 12.529297 15.341797 C 11.455078 15 10.205078 15 7.998047 15 C 4.6875 15 2.705078 15.800781 1.533203 16.71875 C 0.947266 17.177734 0.566406 17.646484 0.341797 18.027344 C 0.117188 18.417969 0.0292969 18.779297 0.0292969 18.779297 C -0.0390625 19.091797 0.0390625 19.414062 0.253906 19.658203 C 0.253906 19.658203 0.634766 20.058594 1.25 20.371094 C 1.865234 20.693359 2.792969 20.996094 4.003906 20.996094 C 5.732422 20.996094 7.412109 20.839844 8.964844 21.308594 C 9.550781 21.494141 10.136719 21.748047 10.722656 22.158203 C 10.15625 22.050781 9.589844 22.001953 9.003906 22.001953 C 4.003906 22.001953 0 25.996094 0 30.996094 C 0 35.996094 4.003906 40 9.003906 40 C 13.388672 40 16.992188 36.914062 17.8125 32.783203 C 18.496094 33.105469 19.277344 33.320312 20.097656 33.496094 C 21.640625 33.847656 23.310547 34.003906 24.589844 34.003906 C 26.054688 34.003906 27.441406 33.769531 28.535156 33.339844 C 29.082031 33.134766 29.541016 32.890625 29.941406 32.529297 C 30.332031 32.167969 30.683594 31.640625 30.683594 30.996094 C 30.693359 30.957031 30.693359 30.917969 30.683594 30.878906 C 30.117188 26.865234 31.230469 24.404297 32.441406 22.871094 C 33.056641 22.089844 33.681641 21.572266 34.160156 21.25 C 34.550781 22.128906 34.951172 23.027344 35.410156 23.90625 C 33.320312 25.546875 32.001953 28.115234 32.001953 30.996094 C 32.001953 35.996094 35.996094 40 40.996094 40 C 45.996094 40 50 35.996094 50 30.996094 C 50 25.996094 45.996094 22.001953 40.996094 22.001953 C 39.609375 22.001953 38.300781 22.314453 37.128906 22.871094 C 36.425781 21.494141 35.810547 20.097656 35.283203 18.779297 C 36.015625 18.925781 36.787109 19.003906 37.5 19.003906 C 38.203125 19.003906 38.779297 18.935547 39.277344 18.75 C 39.785156 18.564453 40.205078 18.222656 40.46875 17.8125 C 40.996094 16.982422 40.908203 16.171875 40.908203 15.498047 C 40.908203 14.824219 40.996094 14.013672 40.46875 13.183594 C 40.205078 12.773438 39.785156 12.431641 39.277344 12.246094 C 38.779297 12.070312 38.203125 12.001953 37.5 12.001953 C 36.064453 12.001953 34.628906 12.333984 33.496094 13.066406 C 33.310547 12.353516 33.017578 11.279297 32.998047 11.220703 C 32.998047 11.210938 32.96875 11.064453 32.96875 11.064453 C 32.929688 10.898438 32.861328 10.751953 32.753906 10.625 C 32.441406 9.521484 31.875 8.535156 31.875 8.535156 C 31.699219 8.203125 31.367188 8.007812 30.996094 7.998047 Z M 37.5 14.003906 C 38.046875 14.003906 38.417969 14.0625 38.59375 14.121094 C 38.769531 14.189453 38.759766 14.21875 38.779297 14.248047 C 38.828125 14.326172 38.90625 14.775391 38.90625 15.498047 C 38.90625 16.220703 38.828125 16.679688 38.779297 16.748047 C 38.759766 16.787109 38.769531 16.806641 38.59375 16.875 C 38.417969 16.943359 38.046875 17.001953 37.5 17.001953 C 36.513672 17.001953 35 16.679688 34.433594 16.435547 C 34.306641 15.996094 34.179688 15.566406 34.0625 15.126953 C 34.072266 15.117188 34.082031 15.107422 34.091797 15.097656 C 34.707031 14.482422 36.113281 14.003906 37.5 14.003906 Z M 31.875 14.433594 C 32.167969 15.576172 32.451172 16.640625 32.783203 17.753906 C 32.792969 17.851562 32.8125 17.939453 32.841797 18.027344 C 32.890625 18.154297 32.949219 18.28125 32.998047 18.408203 C 33.105469 18.75 33.183594 19.0625 33.310547 19.433594 C 32.675781 19.824219 31.816406 20.458984 30.878906 21.660156 C 29.394531 23.535156 28.125 26.582031 28.720703 30.996094 L 28.691406 30.996094 C 28.671875 31.015625 28.662109 30.996094 28.623047 31.035156 C 28.496094 31.152344 28.203125 31.318359 27.8125 31.464844 C 27.03125 31.767578 25.830078 32.001953 24.589844 32.001953 C 23.476562 32.001953 21.894531 31.865234 20.527344 31.5625 C 19.257812 31.279297 18.222656 30.722656 17.96875 30.46875 C 17.832031 28.115234 16.835938 26.015625 15.253906 24.501953 C 13.535156 21.494141 11.523438 20.019531 9.53125 19.404297 C 7.490234 18.779297 5.566406 19.003906 4.003906 19.003906 C 3.232422 19.003906 2.773438 18.847656 2.402344 18.691406 C 2.519531 18.554688 2.558594 18.4375 2.753906 18.28125 C 3.505859 17.695312 5.009766 17.001953 7.998047 17.001953 C 10.195312 17.001953 11.386719 17.070312 11.933594 17.246094 C 12.480469 17.421875 12.617188 17.597656 13.125 18.466797 C 13.134766 18.486328 13.144531 18.486328 13.154297 18.496094 C 13.789062 19.628906 14.990234 20.107422 16.376953 20.46875 C 17.773438 20.839844 19.423828 20.996094 20.996094 20.996094 C 21.455078 20.996094 21.943359 20.761719 22.216797 20.46875 C 22.5 20.175781 22.626953 19.902344 22.753906 19.628906 C 22.988281 19.072266 23.154297 18.525391 23.466797 18.027344 C 24.101562 17.03125 25.205078 15.996094 29.003906 15.996094 C 30.292969 15.996094 31.230469 15.263672 31.875 14.433594 Z M 9.003906 24.003906 C 10.830078 24.003906 12.480469 24.6875 13.720703 25.810547 C 13.789062 25.908203 13.867188 25.996094 13.964844 26.064453 C 15 27.099609 15.693359 28.466797 15.908203 30 L 13.90625 30 C 13.457031 27.685547 11.464844 25.996094 9.003906 25.996094 C 6.201172 25.996094 4.003906 28.203125 4.003906 30.996094 C 4.003906 33.798828 6.201172 35.996094 9.003906 35.996094 C 11.464844 35.996094 13.457031 34.316406 13.90625 32.001953 L 15.908203 32.001953 C 15.419922 35.410156 12.558594 37.998047 9.003906 37.998047 C 5.097656 37.998047 2.001953 34.902344 2.001953 30.996094 C 2.001953 27.099609 5.097656 24.003906 9.003906 24.003906 Z M 40.996094 24.003906 C 44.902344 24.003906 47.998047 27.099609 47.998047 30.996094 C 47.998047 34.902344 44.902344 37.998047 40.996094 37.998047 C 37.099609 37.998047 34.003906 34.902344 34.003906 30.996094 C 34.003906 28.886719 34.921875 27.03125 36.376953 25.751953 C 36.699219 26.337891 37.060547 26.904297 37.402344 27.470703 C 36.523438 28.369141 35.996094 29.619141 35.996094 30.996094 C 35.996094 33.798828 38.203125 35.996094 40.996094 35.996094 C 43.798828 35.996094 45.996094 33.798828 45.996094 30.996094 C 45.996094 28.203125 43.798828 25.996094 40.996094 25.996094 C 40.322266 25.996094 39.677734 26.113281 39.091797 26.347656 C 38.75 25.78125 38.417969 25.205078 38.095703 24.628906 C 38.974609 24.228516 39.960938 24.003906 40.996094 24.003906 Z M 9.003906 27.998047 C 10.351562 27.998047 11.445312 28.818359 11.845703 30 L 9.003906 30 C 8.964844 30 8.935547 30 8.90625 30 C 8.359375 30.029297 7.929688 30.498047 7.949219 31.044922 C 7.978516 31.601562 8.447266 32.03125 9.003906 32.001953 L 11.845703 32.001953 C 11.445312 33.183594 10.351562 34.003906 9.003906 34.003906 C 7.304688 34.003906 5.996094 32.695312 5.996094 30.996094 C 5.996094 29.296875 7.304688 27.998047 9.003906 27.998047 Z M 40.996094 27.998047 C 42.695312 27.998047 44.003906 29.296875 44.003906 30.996094 C 44.003906 32.695312 42.695312 34.003906 40.996094 34.003906 C 39.296875 34.003906 37.998047 32.695312 37.998047 30.996094 C 37.998047 30.332031 38.212891 29.746094 38.564453 29.248047 C 39.443359 30.537109 40.361328 31.708984 41.279297 32.685547 C 41.513672 32.988281 41.904297 33.134766 42.275391 33.056641 C 42.646484 32.978516 42.949219 32.695312 43.046875 32.324219 C 43.134766 31.953125 43.007812 31.5625 42.714844 31.308594 C 41.884766 30.429688 41.054688 29.316406 40.214844 28.095703 C 40.46875 28.027344 40.732422 27.998047 40.996094 27.998047 Z M 40.996094 27.998047 " transform="matrix(0.4,0,0,0.4,0,0)"/>
</g>
</svg>
