<?xml version="1.0" encoding="UTF-8"?>
<svg xmlns="http://www.w3.org/2000/svg" xmlns:xlink="http://www.w3.org/1999/xlink" width="20px" height="20px" viewBox="0 0 20 20" version="1.1">
<g id="surface1">
<path style=" stroke:none;fill-rule:nonzero;fill:rgb(92.54902%,44.313726%,14.117648%);fill-opacity:1;" d="M 12.398438 3.199219 C 12.398438 3.199219 11.054688 3.171875 10.113281 4.113281 C 9.953125 4.273438 9.953125 4.527344 10.113281 4.6875 C 10.273438 4.847656 10.527344 4.847656 10.6875 4.6875 C 11.210938 4.164062 11.855469 4.066406 12.148438 4.039062 C 12.230469 4.210938 12.320312 4.398438 12.363281 4.601562 C 12.367188 4.625 12.375 4.652344 12.386719 4.675781 C 12.367188 4.816406 12.3125 5.027344 12.199219 5.210938 C 12.054688 5.449219 11.882812 5.601562 11.601562 5.601562 C 9.917969 5.601562 9.09375 6.1875 8.710938 6.789062 C 8.523438 7.089844 8.441406 7.371094 8.375 7.523438 C 8.355469 7.570312 8.347656 7.570312 8.335938 7.585938 C 7.789062 7.582031 7.214844 7.53125 6.761719 7.414062 C 6.292969 7.289062 5.980469 7.066406 5.949219 7.011719 C 5.949219 7.007812 5.949219 7.003906 5.949219 7 C 5.71875 6.601562 5.441406 6.277344 5.011719 6.136719 C 4.582031 6 4.082031 6 3.199219 6 C 1.875 6 1.082031 6.320312 0.613281 6.6875 C 0.378906 6.871094 0.226562 7.058594 0.136719 7.210938 C 0.046875 7.367188 0.0117188 7.511719 0.0117188 7.511719 C -0.015625 7.636719 0.015625 7.765625 0.101562 7.863281 C 0.101562 7.863281 0.253906 8.023438 0.5 8.148438 C 0.746094 8.277344 1.117188 8.398438 1.601562 8.398438 C 2.292969 8.398438 2.964844 8.335938 3.585938 8.523438 C 3.820312 8.597656 4.054688 8.699219 4.289062 8.863281 C 4.0625 8.820312 3.835938 8.800781 3.601562 8.800781 C 1.601562 8.800781 0 10.398438 0 12.398438 C 0 14.398438 1.601562 16 3.601562 16 C 5.355469 16 6.796875 14.765625 7.125 13.113281 C 7.398438 13.242188 7.710938 13.328125 8.039062 13.398438 C 8.65625 13.539062 9.324219 13.601562 9.835938 13.601562 C 10.421875 13.601562 10.976562 13.507812 11.414062 13.335938 C 11.632812 13.253906 11.816406 13.15625 11.976562 13.011719 C 12.132812 12.867188 12.273438 12.65625 12.273438 12.398438 C 12.277344 12.382812 12.277344 12.367188 12.273438 12.351562 C 12.046875 10.746094 12.492188 9.761719 12.976562 9.148438 C 13.222656 8.835938 13.472656 8.628906 13.664062 8.5 C 13.820312 8.851562 13.980469 9.210938 14.164062 9.5625 C 13.328125 10.21875 12.800781 11.246094 12.800781 12.398438 C 12.800781 14.398438 14.398438 16 16.398438 16 C 18.398438 16 20 14.398438 20 12.398438 C 20 10.398438 18.398438 8.800781 16.398438 8.800781 C 15.84375 8.800781 15.320312 8.925781 14.851562 9.148438 C 14.570312 8.597656 14.324219 8.039062 14.113281 7.511719 C 14.40625 7.570312 14.714844 7.601562 15 7.601562 C 15.28125 7.601562 15.511719 7.574219 15.710938 7.5 C 15.914062 7.425781 16.082031 7.289062 16.1875 7.125 C 16.398438 6.792969 16.363281 6.46875 16.363281 6.199219 C 16.363281 5.929688 16.398438 5.605469 16.1875 5.273438 C 16.082031 5.109375 15.914062 4.972656 15.710938 4.898438 C 15.511719 4.828125 15.28125 4.800781 15 4.800781 C 14.425781 4.800781 13.851562 4.933594 13.398438 5.226562 C 13.324219 4.941406 13.207031 4.511719 13.199219 4.488281 C 13.199219 4.484375 13.1875 4.425781 13.1875 4.425781 C 13.171875 4.359375 13.144531 4.300781 13.101562 4.25 C 12.976562 3.808594 12.75 3.414062 12.75 3.414062 C 12.679688 3.28125 12.546875 3.203125 12.398438 3.199219 Z M 15 5.601562 C 15.21875 5.601562 15.367188 5.625 15.4375 5.648438 C 15.507812 5.675781 15.503906 5.6875 15.511719 5.699219 C 15.53125 5.730469 15.5625 5.910156 15.5625 6.199219 C 15.5625 6.488281 15.53125 6.671875 15.511719 6.699219 C 15.503906 6.714844 15.507812 6.722656 15.4375 6.75 C 15.367188 6.777344 15.21875 6.800781 15 6.800781 C 14.605469 6.800781 14 6.671875 13.773438 6.574219 C 13.722656 6.398438 13.671875 6.226562 13.625 6.050781 C 13.628906 6.046875 13.632812 6.042969 13.636719 6.039062 C 13.882812 5.792969 14.445312 5.601562 15 5.601562 Z M 12.75 5.773438 C 12.867188 6.230469 12.980469 6.65625 13.113281 7.101562 C 13.117188 7.140625 13.125 7.175781 13.136719 7.210938 C 13.15625 7.261719 13.179688 7.3125 13.199219 7.363281 C 13.242188 7.5 13.273438 7.625 13.324219 7.773438 C 13.070312 7.929688 12.726562 8.183594 12.351562 8.664062 C 11.757812 9.414062 11.25 10.632812 11.488281 12.398438 L 11.476562 12.398438 C 11.46875 12.40625 11.464844 12.398438 11.449219 12.414062 C 11.398438 12.460938 11.28125 12.527344 11.125 12.585938 C 10.8125 12.707031 10.332031 12.800781 9.835938 12.800781 C 9.390625 12.800781 8.757812 12.746094 8.210938 12.625 C 7.703125 12.511719 7.289062 12.289062 7.1875 12.1875 C 7.132812 11.246094 6.734375 10.40625 6.101562 9.800781 C 5.414062 8.597656 4.609375 8.007812 3.8125 7.761719 C 2.996094 7.511719 2.226562 7.601562 1.601562 7.601562 C 1.292969 7.601562 1.109375 7.539062 0.960938 7.476562 C 1.007812 7.421875 1.023438 7.375 1.101562 7.3125 C 1.402344 7.078125 2.003906 6.800781 3.199219 6.800781 C 4.078125 6.800781 4.554688 6.828125 4.773438 6.898438 C 4.992188 6.96875 5.046875 7.039062 5.25 7.386719 C 5.253906 7.394531 5.257812 7.394531 5.261719 7.398438 C 5.515625 7.851562 5.996094 8.042969 6.550781 8.1875 C 7.109375 8.335938 7.769531 8.398438 8.398438 8.398438 C 8.582031 8.398438 8.777344 8.304688 8.886719 8.1875 C 9 8.070312 9.050781 7.960938 9.101562 7.851562 C 9.195312 7.628906 9.261719 7.410156 9.386719 7.210938 C 9.640625 6.8125 10.082031 6.398438 11.601562 6.398438 C 12.117188 6.398438 12.492188 6.105469 12.75 5.773438 Z M 3.601562 9.601562 C 4.332031 9.601562 4.992188 9.875 5.488281 10.324219 C 5.515625 10.363281 5.546875 10.398438 5.585938 10.425781 C 6 10.839844 6.277344 11.386719 6.363281 12 L 5.5625 12 C 5.382812 11.074219 4.585938 10.398438 3.601562 10.398438 C 2.480469 10.398438 1.601562 11.28125 1.601562 12.398438 C 1.601562 13.519531 2.480469 14.398438 3.601562 14.398438 C 4.585938 14.398438 5.382812 13.726562 5.5625 12.800781 L 6.363281 12.800781 C 6.167969 14.164062 5.023438 15.199219 3.601562 15.199219 C 2.039062 15.199219 0.800781 13.960938 0.800781 12.398438 C 0.800781 10.839844 2.039062 9.601562 3.601562 9.601562 Z M 16.398438 9.601562 C 17.960938 9.601562 19.199219 10.839844 19.199219 12.398438 C 19.199219 13.960938 17.960938 15.199219 16.398438 15.199219 C 14.839844 15.199219 13.601562 13.960938 13.601562 12.398438 C 13.601562 11.554688 13.96875 10.8125 14.550781 10.300781 C 14.679688 10.535156 14.824219 10.761719 14.960938 10.988281 C 14.609375 11.347656 14.398438 11.847656 14.398438 12.398438 C 14.398438 13.519531 15.28125 14.398438 16.398438 14.398438 C 17.519531 14.398438 18.398438 13.519531 18.398438 12.398438 C 18.398438 11.28125 17.519531 10.398438 16.398438 10.398438 C 16.128906 10.398438 15.871094 10.445312 15.636719 10.539062 C 15.5 10.3125 15.367188 10.082031 15.238281 9.851562 C 15.589844 9.691406 15.984375 9.601562 16.398438 9.601562 Z M 3.601562 11.199219 C 4.140625 11.199219 4.578125 11.527344 4.738281 12 L 3.601562 12 C 3.585938 12 3.574219 12 3.5625 12 C 3.34375 12.011719 3.171875 12.199219 3.179688 12.417969 C 3.191406 12.640625 3.378906 12.8125 3.601562 12.800781 L 4.738281 12.800781 C 4.578125 13.273438 4.140625 13.601562 3.601562 13.601562 C 2.921875 13.601562 2.398438 13.078125 2.398438 12.398438 C 2.398438 11.71875 2.921875 11.199219 3.601562 11.199219 Z M 16.398438 11.199219 C 17.078125 11.199219 17.601562 11.71875 17.601562 12.398438 C 17.601562 13.078125 17.078125 13.601562 16.398438 13.601562 C 15.71875 13.601562 15.199219 13.078125 15.199219 12.398438 C 15.199219 12.132812 15.285156 11.898438 15.425781 11.699219 C 15.777344 12.214844 16.144531 12.683594 16.511719 13.074219 C 16.605469 13.195312 16.761719 13.253906 16.910156 13.222656 C 17.058594 13.191406 17.179688 13.078125 17.21875 12.929688 C 17.253906 12.78125 17.203125 12.625 17.085938 12.523438 C 16.753906 12.171875 16.421875 11.726562 16.085938 11.238281 C 16.1875 11.210938 16.292969 11.199219 16.398438 11.199219 Z M 16.398438 11.199219 "/>
</g>
</svg>
